<svg xmlns="http://www.w3.org/2000/svg" viewBox="0 0 256 257" fill="none">
  <path d="M255.153 37.938 134.897 252.31c-2.49 4.43-8.846 4.414-11.313-.03L.587 37.938c-2.748-4.807 1.368-10.792 6.84-9.94l120.326 18.716a6.44 6.44 0 0 0 1.986 0L248.31 27.997c5.46-.848 9.574 5.112 6.843 9.941Z" fill="url(#a)"/>
  <path d="M185.432.063 96.44 17.5a3.22 3.22 0 0 0-2.593 2.675L88.37 52.1a3.22 3.22 0 0 0 3.914 3.52l24.772-5.423a3.22 3.22 0 0 1 3.856 3.86l-7.358 36.088a3.22 3.22 0 0 0 3.974 3.78l15.305-4.186a3.22 3.22 0 0 1 4 3.82l-11.7 55.056c-.732 3.446 3.85 5.326 5.75 2.36l1.27-1.984 72.52-144.75c1.214-2.424-.88-5.23-3.57-4.71Z" fill="url(#b)"/>
  <defs>
    <linearGradient id="a" x1=".385" y1="26.33" x2="132.915" y2="251.87" gradientUnits="userSpaceOnUse">
      <stop stop-color="#41D1FF"/>
      <stop offset="1" stop-color="#BD34FE"/>
    </linearGradient>
    <linearGradient id="b" x1="194.651" y1="8.818" x2="132.827" y2="152.076" gradientUnits="userSpaceOnUse">
      <stop stop-color="#FFEA83"/>
      <stop offset=".083" stop-color="#FFDD35"/>
      <stop offset="1" stop-color="#FFA800"/>
    </linearGradient>
  </defs>
</svg>
